<svg xmlns="http://www.w3.org/2000/svg" width="900" height="650" viewBox="0 0 900 650"><rect width="900" height="650" rx="24" fill="#0b0202"/><rect x="320" y="40" width="260" height="570" rx="34" fill="#140606" stroke="#4a2020" stroke-width="3"/><rect x="340" y="82" width="220" height="470" rx="18" fill="#120505"/><circle cx="450" cy="62" r="4" fill="#55756b"/><rect x="360" y="108" width="180" height="46" rx="12" fill="#3a0d0d"/><text x="450" y="128" text-anchor="middle" fill="#f2f7f5" font-family="Arial" font-size="13" font-weight="700">Encryption Center</text><text x="450" y="145" text-anchor="middle" fill="#856b6b" font-family="Arial" font-size="9">Text / Code</text><rect x="360" y="175" width="180" height="60" rx="11" fill="#190707" stroke="#8f1b1b"/><text x="375" y="198" fill="#f2f7f5" font-family="Arial" font-size="11" font-weight="700">AES-256-GCM</text><text x="375" y="218" fill="#ff4a4a" font-family="Arial" font-size="9">SECURE</text><rect x="360" y="248" width="180" height="125" rx="11" fill="#0d1815" stroke="#321414"/><text x="375" y="272" fill="#987f7f" font-family="Arial" font-size="9">PLAINTEXT</text><text x="375" y="300" fill="#6d5555" font-family="monospace" font-size="10">Type or paste…</text><rect x="360" y="389" width="180" height="36" rx="9" fill="#190707"/><text x="375" y="412" fill="#806666" font-family="monospace" font-size="10">••••••••••••</text><rect x="360" y="440" width="180" height="40" rx="9" fill="#dc1717"/><text x="450" y="465" text-anchor="middle" fill="#180101" font-family="Arial" font-size="12" font-weight="700">Encrypt</text><text x="450" y="530" text-anchor="middle" fill="#705858" font-family="Arial" font-size="9">English / فارسی</text><text x="40" y="300" fill="#f2f7f5" font-family="Arial" font-size="28" font-weight="700">Responsive by design</text><text x="40" y="338" fill="#a58a8a" font-family="Arial" font-size="14">Touch-friendly controls, compact navigation,</text><text x="40" y="362" fill="#a58a8a" font-family="Arial" font-size="14">dark/light theme and RTL Persian support.</text></svg>
