<svg xmlns="http://www.w3.org/2000/svg" width="1400" height="820" viewBox="0 0 1400 820">
<defs><linearGradient id="bg" x1="0" y1="0" x2="1" y2="1"><stop stop-color="#0b0202"/><stop offset="1" stop-color="#1a0808"/></linearGradient><linearGradient id="g" x1="0" y1="0" x2="1" y2="1"><stop stop-color="#ef1b1b"/><stop offset="1" stop-color="#b80f0f"/></linearGradient></defs>
<rect width="1400" height="820" rx="24" fill="url(#bg)"/><rect x="24" y="24" width="260" height="772" rx="18" fill="#140606" stroke="#321414"/><rect x="310" y="24" width="1066" height="772" rx="18" fill="#120505" stroke="#321414"/>
<rect x="52" y="54" width="42" height="42" rx="12" fill="url(#g)"/><text x="108" y="75" fill="#f2f7f5" font-family="Arial" font-size="18" font-weight="700">Encryption Center</text><text x="108" y="94" fill="#82968f" font-family="Arial" font-size="11">Client-side crypto suite</text>
<g font-family="Arial" font-size="14" fill="#aabbb6"><text x="54" y="150">🔒  Text / Code</text><text x="54" y="194">◈  Encoding</text><text x="54" y="238">▣  File Encryption</text><text x="54" y="282">◉  Steganography</text><text x="54" y="326">⌘  Password Generator</text><text x="54" y="370">#  Hash Calculator</text><text x="54" y="414">⚿  Key Management</text><text x="54" y="458">▣  Key Vault</text><text x="54" y="502">?  Help Center</text></g>
<rect x="50" y="130" width="204" height="34" rx="9" fill="#3a0d0d"/><text x="67" y="152" fill="#ff5a5a" font-family="Arial" font-size="14" font-weight="600">🔒  Text / Code</text>
<text x="350" y="76" fill="#f2f7f5" font-family="Arial" font-size="25" font-weight="700">Text / Code Encryption</text><text x="350" y="104" fill="#a58a8a" font-family="Arial" font-size="13">Encrypt and decrypt text locally with authenticated encryption.</text>
<rect x="350" y="135" width="240" height="74" rx="12" fill="#190707" stroke="#8f1b1b"/><text x="368" y="162" fill="#f2f7f5" font-family="Arial" font-size="14" font-weight="700">AES-256-GCM</text><text x="368" y="184" fill="#ff4a4a" font-family="Arial" font-size="11">SECURE • Web Crypto</text>
<rect x="606" y="135" width="240" height="74" rx="12" fill="#190707" stroke="#321414"/><text x="624" y="162" fill="#f2f7f5" font-family="Arial" font-size="14" font-weight="700">ChaCha20-Poly1305</text><text x="624" y="184" fill="#ff4a4a" font-family="Arial" font-size="11">SECURE • Argon2id</text>
<rect x="862" y="135" width="240" height="74" rx="12" fill="#190707" stroke="#321414"/><text x="880" y="162" fill="#f2f7f5" font-family="Arial" font-size="14" font-weight="700">Age-style</text><text x="880" y="184" fill="#ff4a4a" font-family="Arial" font-size="11">X25519 • ChaCha20</text>
<rect x="1118" y="135" width="230" height="74" rx="12" fill="#190707" stroke="#321414"/><text x="1136" y="162" fill="#f2f7f5" font-family="Arial" font-size="14" font-weight="700">OpenPGP</text><text x="1136" y="184" fill="#ff4a4a" font-family="Arial" font-size="11">OPENPGP.JS</text>
<rect x="350" y="232" width="998" height="78" rx="14" fill="#180606" stroke="#321414"/><text x="372" y="258" fill="#a58a8a" font-family="Arial" font-size="11">SECURITY NOTE</text><text x="372" y="282" fill="#e3d8d8" font-family="Arial" font-size="13">All cryptographic operations run locally in your browser. No plaintext or passwords are uploaded.</text>
<rect x="350" y="336" width="485" height="285" rx="14" fill="#140606" stroke="#321414"/><rect x="863" y="336" width="485" height="285" rx="14" fill="#140606" stroke="#321414"/><text x="372" y="365" fill="#a58a8a" font-family="Arial" font-size="11">PLAINTEXT</text><text x="885" y="365" fill="#a58a8a" font-family="Arial" font-size="11">CIPHERTEXT</text><text x="372" y="407" fill="#746060" font-family="monospace" font-size="13">Type or paste text here…</text><rect x="372" y="438" width="441" height="44" rx="9" fill="#190707"/><text x="388" y="465" fill="#8d7373" font-family="monospace" font-size="12">••••••••••••••••••••</text><rect x="350" y="648" width="998" height="58" rx="11" fill="#dc1717"/><text x="780" y="684" text-anchor="middle" fill="#180101" font-family="Arial" font-size="15" font-weight="700">Encrypt</text>
<text x="350" y="750" fill="#765e5e" font-family="Arial" font-size="11">UI preview illustration • colors and layout reflect the project design.</text>
</svg>
